<mxfile host="app.diagrams.net" modified="2021-11-08T07:25:28.897Z" agent="5.0 (X11)" etag="goJBdFDR-sPtgce015xT" version="15.6.8" type="github">
  <diagram id="kgpKYQtTHZ0yAKxKKP6v" name="Page-1">
    <mxGraphModel dx="2199" dy="584" grid="1" gridSize="10" guides="1" tooltips="1" connect="1" arrows="1" fold="1" page="1" pageScale="1" pageWidth="1169" pageHeight="827" math="0" shadow="0">
      <root>
        <mxCell id="0" />
        <mxCell id="1" parent="0" />
        <mxCell id="3nuBFxr9cyL0pnOWT2aG-1" value="Application" style="shape=umlLifeline;perimeter=lifelinePerimeter;container=1;collapsible=0;recursiveResize=0;rounded=0;shadow=0;strokeWidth=1;" parent="1" vertex="1">
          <mxGeometry x="-360" y="80" width="120" height="520" as="geometry" />
        </mxCell>
        <mxCell id="3nuBFxr9cyL0pnOWT2aG-2" value="" style="points=[];perimeter=orthogonalPerimeter;rounded=0;shadow=0;strokeWidth=1;" parent="3nuBFxr9cyL0pnOWT2aG-1" vertex="1">
          <mxGeometry x="55" y="200" width="10" height="280" as="geometry" />
        </mxCell>
        <mxCell id="3nuBFxr9cyL0pnOWT2aG-5" value="User" style="shape=umlLifeline;perimeter=lifelinePerimeter;container=1;collapsible=0;recursiveResize=0;rounded=0;shadow=0;strokeWidth=1;" parent="1" vertex="1">
          <mxGeometry x="-520" y="80" width="120" height="520" as="geometry" />
        </mxCell>
        <mxCell id="3nuBFxr9cyL0pnOWT2aG-6" value="" style="points=[];perimeter=orthogonalPerimeter;rounded=0;shadow=0;strokeWidth=1;" parent="3nuBFxr9cyL0pnOWT2aG-5" vertex="1">
          <mxGeometry x="55" y="160" width="10" height="320" as="geometry" />
        </mxCell>
        <mxCell id="OjNB47a1KJUwrNqXAL-a-22" value="" style="endArrow=classic;html=1;rounded=0;" parent="3nuBFxr9cyL0pnOWT2aG-5" edge="1">
          <mxGeometry width="50" height="50" relative="1" as="geometry">
            <mxPoint x="210" y="280" as="sourcePoint" />
            <mxPoint x="65" y="279.71000000000004" as="targetPoint" />
          </mxGeometry>
        </mxCell>
        <mxCell id="OjNB47a1KJUwrNqXAL-a-23" value="&lt;div&gt;Valide le pseudo&lt;br&gt;&lt;/div&gt;" style="edgeLabel;html=1;align=center;verticalAlign=middle;resizable=0;points=[];" parent="OjNB47a1KJUwrNqXAL-a-22" vertex="1" connectable="0">
          <mxGeometry x="-0.2573" y="-1" relative="1" as="geometry">
            <mxPoint x="-16" y="-10" as="offset" />
          </mxGeometry>
        </mxCell>
        <mxCell id="OjNB47a1KJUwrNqXAL-a-36" value="" style="endArrow=classic;html=1;rounded=0;exitX=0.943;exitY=0.317;exitDx=0;exitDy=0;exitPerimeter=0;entryX=-0.4;entryY=0.504;entryDx=0;entryDy=0;entryPerimeter=0;" parent="3nuBFxr9cyL0pnOWT2aG-5" target="OjNB47a1KJUwrNqXAL-a-6" edge="1">
          <mxGeometry width="50" height="50" relative="1" as="geometry">
            <mxPoint x="65.00000000000006" y="320.25" as="sourcePoint" />
            <mxPoint x="210.57" y="320" as="targetPoint" />
          </mxGeometry>
        </mxCell>
        <mxCell id="OjNB47a1KJUwrNqXAL-a-37" value="Ouvre une session" style="edgeLabel;html=1;align=center;verticalAlign=middle;resizable=0;points=[];" parent="OjNB47a1KJUwrNqXAL-a-36" vertex="1" connectable="0">
          <mxGeometry x="-0.2573" y="-1" relative="1" as="geometry">
            <mxPoint x="-46" y="-10" as="offset" />
          </mxGeometry>
        </mxCell>
        <mxCell id="OjNB47a1KJUwrNqXAL-a-1" value="Poste de travail" style="shape=umlLifeline;perimeter=lifelinePerimeter;container=1;collapsible=0;recursiveResize=0;rounded=0;shadow=0;strokeWidth=1;" parent="1" vertex="1">
          <mxGeometry x="-681" y="80" width="121" height="520" as="geometry" />
        </mxCell>
        <mxCell id="OjNB47a1KJUwrNqXAL-a-2" value="" style="points=[];perimeter=orthogonalPerimeter;rounded=0;shadow=0;strokeWidth=1;" parent="OjNB47a1KJUwrNqXAL-a-1" vertex="1">
          <mxGeometry x="55" y="80" width="10" height="120" as="geometry" />
        </mxCell>
        <mxCell id="OjNB47a1KJUwrNqXAL-a-28" value="" style="endArrow=classic;html=1;rounded=0;exitX=-0.2;exitY=0.006;exitDx=0;exitDy=0;exitPerimeter=0;" parent="OjNB47a1KJUwrNqXAL-a-1" target="OjNB47a1KJUwrNqXAL-a-2" edge="1">
          <mxGeometry width="50" height="50" relative="1" as="geometry">
            <mxPoint x="-94" y="80.03999999999999" as="sourcePoint" />
            <mxPoint x="50" y="80.00000000000003" as="targetPoint" />
          </mxGeometry>
        </mxCell>
        <mxCell id="OjNB47a1KJUwrNqXAL-a-29" value="Copie une série de fichiers" style="edgeLabel;html=1;align=center;verticalAlign=middle;resizable=0;points=[];" parent="OjNB47a1KJUwrNqXAL-a-28" vertex="1" connectable="0">
          <mxGeometry x="-0.2573" y="-1" relative="1" as="geometry">
            <mxPoint x="15" y="-10" as="offset" />
          </mxGeometry>
        </mxCell>
        <mxCell id="OjNB47a1KJUwrNqXAL-a-30" value="" style="endArrow=classic;html=1;rounded=0;" parent="OjNB47a1KJUwrNqXAL-a-1" source="OjNB47a1KJUwrNqXAL-a-4" edge="1">
          <mxGeometry width="50" height="50" relative="1" as="geometry">
            <mxPoint x="-90" y="118" as="sourcePoint" />
            <mxPoint x="55" y="118" as="targetPoint" />
          </mxGeometry>
        </mxCell>
        <mxCell id="OjNB47a1KJUwrNqXAL-a-31" value="&lt;div&gt;Crée un raccourci&lt;/div&gt;" style="edgeLabel;html=1;align=center;verticalAlign=middle;resizable=0;points=[];" parent="OjNB47a1KJUwrNqXAL-a-30" vertex="1" connectable="0">
          <mxGeometry x="-0.2573" y="-1" relative="1" as="geometry">
            <mxPoint x="15" y="-11" as="offset" />
          </mxGeometry>
        </mxCell>
        <mxCell id="OjNB47a1KJUwrNqXAL-a-3" value="Admin" style="shape=umlLifeline;perimeter=lifelinePerimeter;container=1;collapsible=0;recursiveResize=0;rounded=0;shadow=0;strokeWidth=1;" parent="1" vertex="1">
          <mxGeometry x="-840" y="80" width="120" height="520" as="geometry" />
        </mxCell>
        <mxCell id="OjNB47a1KJUwrNqXAL-a-4" value="" style="points=[];perimeter=orthogonalPerimeter;rounded=0;shadow=0;strokeWidth=1;" parent="OjNB47a1KJUwrNqXAL-a-3" vertex="1">
          <mxGeometry x="55" y="80" width="10" height="40" as="geometry" />
        </mxCell>
        <mxCell id="OjNB47a1KJUwrNqXAL-a-5" value="Session de clavardage" style="shape=umlLifeline;perimeter=lifelinePerimeter;container=1;collapsible=0;recursiveResize=0;rounded=0;shadow=0;strokeWidth=1;" parent="1" vertex="1">
          <mxGeometry x="-200" y="80" width="140" height="520" as="geometry" />
        </mxCell>
        <mxCell id="OjNB47a1KJUwrNqXAL-a-6" value="" style="points=[];perimeter=orthogonalPerimeter;rounded=0;shadow=0;strokeWidth=1;" parent="OjNB47a1KJUwrNqXAL-a-5" vertex="1">
          <mxGeometry x="65" y="200" width="10" height="240" as="geometry" />
        </mxCell>
        <mxCell id="OjNB47a1KJUwrNqXAL-a-25" value="" style="endArrow=classic;html=1;rounded=0;" parent="1" target="OjNB47a1KJUwrNqXAL-a-2" edge="1">
          <mxGeometry width="50" height="50" relative="1" as="geometry">
            <mxPoint x="-466" y="240" as="sourcePoint" />
            <mxPoint x="-611" y="240" as="targetPoint" />
          </mxGeometry>
        </mxCell>
        <mxCell id="OjNB47a1KJUwrNqXAL-a-32" value="Clique sur le raccourci" style="edgeLabel;html=1;align=center;verticalAlign=middle;resizable=0;points=[];" parent="OjNB47a1KJUwrNqXAL-a-25" vertex="1" connectable="0">
          <mxGeometry x="0.2414" y="1" relative="1" as="geometry">
            <mxPoint x="15" y="-11" as="offset" />
          </mxGeometry>
        </mxCell>
        <mxCell id="OjNB47a1KJUwrNqXAL-a-33" value="" style="endArrow=classic;html=1;rounded=0;" parent="1" edge="1">
          <mxGeometry width="50" height="50" relative="1" as="geometry">
            <mxPoint x="-616" y="280" as="sourcePoint" />
            <mxPoint x="-310" y="280" as="targetPoint" />
          </mxGeometry>
        </mxCell>
        <mxCell id="OjNB47a1KJUwrNqXAL-a-35" value="Ouvre" style="edgeLabel;html=1;align=center;verticalAlign=middle;resizable=0;points=[];" parent="OjNB47a1KJUwrNqXAL-a-33" vertex="1" connectable="0">
          <mxGeometry x="0.1854" y="3" relative="1" as="geometry">
            <mxPoint x="-101" y="-7" as="offset" />
          </mxGeometry>
        </mxCell>
        <mxCell id="OjNB47a1KJUwrNqXAL-a-20" value="" style="endArrow=classic;html=1;rounded=0;" parent="1" edge="1">
          <mxGeometry width="50" height="50" relative="1" as="geometry">
            <mxPoint x="-450" y="319" as="sourcePoint" />
            <mxPoint x="-310" y="319" as="targetPoint" />
          </mxGeometry>
        </mxCell>
        <mxCell id="OjNB47a1KJUwrNqXAL-a-21" value="&lt;div&gt;Choisit un pseudo&lt;/div&gt;" style="edgeLabel;html=1;align=center;verticalAlign=middle;resizable=0;points=[];" parent="OjNB47a1KJUwrNqXAL-a-20" vertex="1" connectable="0">
          <mxGeometry x="-0.2573" y="-1" relative="1" as="geometry">
            <mxPoint x="19" y="-10" as="offset" />
          </mxGeometry>
        </mxCell>
        <mxCell id="OjNB47a1KJUwrNqXAL-a-39" value="" style="endArrow=classic;html=1;rounded=0;exitX=0.943;exitY=0.317;exitDx=0;exitDy=0;exitPerimeter=0;entryX=-0.4;entryY=0.642;entryDx=0;entryDy=0;entryPerimeter=0;" parent="1" edge="1">
          <mxGeometry width="50" height="50" relative="1" as="geometry">
            <mxPoint x="-455" y="440.25" as="sourcePoint" />
            <mxPoint x="-139" y="441.98" as="targetPoint" />
          </mxGeometry>
        </mxCell>
        <mxCell id="OjNB47a1KJUwrNqXAL-a-40" value="Ecrit un message&lt;span style=&quot;white-space: pre&quot;&gt;&lt;/span&gt;" style="edgeLabel;html=1;align=center;verticalAlign=middle;resizable=0;points=[];" parent="OjNB47a1KJUwrNqXAL-a-39" vertex="1" connectable="0">
          <mxGeometry x="-0.2573" y="-1" relative="1" as="geometry">
            <mxPoint x="-46" y="-10" as="offset" />
          </mxGeometry>
        </mxCell>
        <mxCell id="OjNB47a1KJUwrNqXAL-a-41" value="" style="endArrow=classic;html=1;rounded=0;exitX=0.943;exitY=0.317;exitDx=0;exitDy=0;exitPerimeter=0;entryX=-0.4;entryY=0.642;entryDx=0;entryDy=0;entryPerimeter=0;" parent="1" edge="1">
          <mxGeometry width="50" height="50" relative="1" as="geometry">
            <mxPoint x="-138" y="479.98" as="sourcePoint" />
            <mxPoint x="-454" y="478.25" as="targetPoint" />
          </mxGeometry>
        </mxCell>
        <mxCell id="OjNB47a1KJUwrNqXAL-a-42" value="Affiche le mess&lt;span style=&quot;white-space: pre&quot;&gt;age&lt;/span&gt;" style="edgeLabel;html=1;align=center;verticalAlign=middle;resizable=0;points=[];" parent="OjNB47a1KJUwrNqXAL-a-41" vertex="1" connectable="0">
          <mxGeometry x="-0.2573" y="-1" relative="1" as="geometry">
            <mxPoint x="40" y="-10" as="offset" />
          </mxGeometry>
        </mxCell>
        <mxCell id="OjNB47a1KJUwrNqXAL-a-43" value="" style="endArrow=classic;html=1;rounded=0;exitX=0.943;exitY=0.317;exitDx=0;exitDy=0;exitPerimeter=0;entryX=-0.4;entryY=0.642;entryDx=0;entryDy=0;entryPerimeter=0;" parent="1" edge="1">
          <mxGeometry width="50" height="50" relative="1" as="geometry">
            <mxPoint x="-136" y="519.98" as="sourcePoint" />
            <mxPoint x="-452" y="518.25" as="targetPoint" />
          </mxGeometry>
        </mxCell>
        <mxCell id="OjNB47a1KJUwrNqXAL-a-44" value="Affiche la réponse" style="edgeLabel;html=1;align=center;verticalAlign=middle;resizable=0;points=[];" parent="OjNB47a1KJUwrNqXAL-a-43" vertex="1" connectable="0">
          <mxGeometry x="-0.2573" y="-1" relative="1" as="geometry">
            <mxPoint x="37" y="-10" as="offset" />
          </mxGeometry>
        </mxCell>
        <mxCell id="_m6Qp06bQpXWK2O7oMxg-1" value="" style="endArrow=classic;html=1;rounded=0;" edge="1" parent="1">
          <mxGeometry width="50" height="50" relative="1" as="geometry">
            <mxPoint x="-455" y="560" as="sourcePoint" />
            <mxPoint x="-310" y="560" as="targetPoint" />
          </mxGeometry>
        </mxCell>
        <mxCell id="_m6Qp06bQpXWK2O7oMxg-2" value="&lt;div&gt;Ferme l&#39;application&lt;br&gt;&lt;/div&gt;" style="edgeLabel;html=1;align=center;verticalAlign=middle;resizable=0;points=[];" vertex="1" connectable="0" parent="_m6Qp06bQpXWK2O7oMxg-1">
          <mxGeometry x="-0.2573" y="-1" relative="1" as="geometry">
            <mxPoint x="19" y="-10" as="offset" />
          </mxGeometry>
        </mxCell>
      </root>
    </mxGraphModel>
  </diagram>
</mxfile>
